[h264 @ 0x562768b62bc0] Reinit context to 1280x720, pix_fmt: yuv420p
Input #0, mov,mp4,m4a,3gp,3g2,mj2, from '/var/www/html/project/media/video/original/can.mp4':
  Metadata:
    major_brand     : mp42
    minor_version   : 1
    compatible_brands: isommp41mp42
    creation_time   : 2024-08-14T11:17:57.000000Z
  Duration: 00:00:52.36, start: 0.000000, bitrate: 11916 kb/s
    Stream #0:0(eng): Audio: aac (LC) (mp4a / 0x6134706D), 48000 Hz, stereo, fltp, 100 kb/s (default)
    Metadata:
      creation_time   : 2024-08-14T11:17:57.000000Z
      handler_name    : Core Media Audio
    Stream #0:1(und): Video: h264 (High), 1 reference frame (avc1 / 0x31637661), yuv420p(tv, bt709, progressive, left), 1280x720, 11793 kb/s, SAR 1:1 DAR 16:9, 25 fps, 25 tbr, 25k tbn, 50k tbc (default)
    Metadata:
      creation_time   : 2024-08-14T11:17:57.000000Z
      handler_name    : Core Media Video
Input #1, png_pipe, from '/var/www/html/project/static/images/templates/logo.png':
  Duration: N/A, bitrate: N/A
    Stream #1:0: Video: png, 1 reference frame, rgba(pc), 1920x1080 [SAR 2835:2835 DAR 16:9], 25 tbr, 25 tbn, 25 tbc
[h264 @ 0x562768b652c0] Reinit context to 1280x720, pix_fmt: yuv420p
Input #2, mov,mp4,m4a,3gp,3g2,mj2, from '/var/www/html/project/static/images/templates/Codino.mp4':
  Metadata:
    major_brand     : mp42
    minor_version   : 1
    compatible_brands: isommp41mp42
    creation_time   : 2021-07-11T07:02:58.000000Z
  Duration: 00:00:02.00, start: 0.000000, bitrate: 1007 kb/s
    Stream #2:0(ita): Audio: aac (LC) (mp4a / 0x6134706D), 44100 Hz, stereo, fltp, 102 kb/s (default)
    Metadata:
      creation_time   : 2021-07-11T07:02:58.000000Z
      handler_name    : Core Media Audio
    Stream #2:1(und): Video: h264 (High), 1 reference frame (avc1 / 0x31637661), yuv420p(tv, bt709, progressive, left), 1280x720 [SAR 1:1 DAR 16:9], 813 kb/s, 25 fps, 25 tbr, 25k tbn, 50k tbc (default)
    Metadata:
      creation_time   : 2021-07-11T07:02:58.000000Z
      handler_name    : Core Media Video
[Parsed_scale_0 @ 0x562768bb9080] w:1920 h:1080 flags:'bilinear' interl:0
[Parsed_scale_2 @ 0x562768c3d480] w:1920 h:1080 flags:'bilinear' interl:0
[Parsed_scale_4 @ 0x562768c3a600] w:1920 h:1080 flags:'bilinear' interl:0
Stream mapping:
  Stream #0:0 (aac) -> concat:in0:a0
  Stream #0:1 (h264) -> scale
  Stream #1:0 (png) -> scale
  Stream #2:0 (aac) -> concat:in1:a0
  Stream #2:1 (h264) -> scale
  concat:out:v0 -> Stream #0:0 (libx264)
  concat:out:a0 -> Stream #0:1 (aac)
Press [q] to stop, [?] for help
[h264 @ 0x562768c2a740] Reinit context to 1280x720, pix_fmt: yuv420p
[h264 @ 0x56276902b100] Reinit context to 1280x720, pix_fmt: yuv420p
[Parsed_scale_0 @ 0x562769f4dc80] w:1920 h:1080 flags:'bilinear' interl:0
[Parsed_scale_2 @ 0x562768c03600] w:1920 h:1080 flags:'bilinear' interl:0
[Parsed_scale_4 @ 0x562769f570c0] w:1920 h:1080 flags:'bilinear' interl:0
[graph 0 input from stream 0:1 @ 0x562769f5b8c0] w:1280 h:720 pixfmt:yuv420p tb:1/25000 fr:25/1 sar:1/1 sws_param:flags=2
[graph 0 input from stream 1:0 @ 0x562769f5c940] w:1920 h:1080 pixfmt:rgba tb:1/25 fr:25/1 sar:2835/2835 sws_param:flags=2
[graph 0 input from stream 2:1 @ 0x562769f5d9c0] w:1280 h:720 pixfmt:yuv420p tb:1/25000 fr:25/1 sar:1/1 sws_param:flags=2
[graph_0_in_0_0 @ 0x562769f5e940] tb:1/48000 samplefmt:fltp samplerate:48000 chlayout:0x3
[graph_0_in_2_0 @ 0x562769f5fa80] tb:1/44100 samplefmt:fltp samplerate:44100 chlayout:0x3
[Parsed_concat_7 @ 0x562769f59940] auto-inserting filter 'auto_resampler_0' between the filter 'graph_0_in_2_0' and the filter 'Parsed_concat_7'
[Parsed_scale_0 @ 0x562769f4dc80] w:1280 h:720 fmt:yuv420p sar:1/1 -> w:1920 h:1080 fmt:yuv420p sar:1/1 flags:0x2
[Parsed_setsar_1 @ 0x562769f55900] w:1920 h:1080 sar:1/1 dar:16/9 -> sar:1/1 dar:16/9
[Parsed_scale_2 @ 0x562768c03600] w:1920 h:1080 fmt:rgba sar:2835/2835 -> w:1920 h:1080 fmt:yuva420p sar:1/1 flags:0x2
[Parsed_setsar_3 @ 0x562769f56640] w:1920 h:1080 sar:1/1 dar:16/9 -> sar:1/1 dar:16/9
[Parsed_overlay_6 @ 0x562769f58800] main w:1920 h:1080 fmt:yuv420p overlay w:1920 h:1080 fmt:yuva420p
[Parsed_overlay_6 @ 0x562769f58800] [framesync @ 0x562769f58968] Selected 1/25000 time base
[Parsed_overlay_6 @ 0x562769f58800] [framesync @ 0x562769f58968] Sync level 2
[Parsed_scale_4 @ 0x562769f570c0] w:1280 h:720 fmt:yuv420p sar:1/1 -> w:1920 h:1080 fmt:yuv420p sar:1/1 flags:0x2
[Parsed_setsar_5 @ 0x562769f57c00] w:1920 h:1080 sar:1/1 dar:16/9 -> sar:1/1 dar:16/9
[auto_resampler_0 @ 0x562769f66e00] ch:2 chl:stereo fmt:fltp r:44100Hz -> ch:2 chl:stereo fmt:fltp r:48000Hz
[libx264 @ 0x562768b72dc0] using SAR=1/1
[libx264 @ 0x562768b72dc0] using cpu capabilities: MMX2 SSE2Fast SSSE3 SSE4.2 AVX FMA3 BMI2 AVX2
[libx264 @ 0x562768b72dc0] profile High, level 4.0
[libx264 @ 0x562768b72dc0] 264 - core 155 r2917 0a84d98 - H.264/MPEG-4 AVC codec - Copyleft 2003-2018 - http://www.videolan.org/x264.html - options: cabac=1 ref=1 deblock=1:0:0 analyse=0x3:0x113 me=hex subme=2 psy=1 psy_rd=1.00:0.00 mixed_ref=0 me_range=16 chroma_me=1 trellis=0 8x8dct=1 cqm=0 deadzone=21,11 fast_pskip=1 chroma_qp_offset=0 threads=24 lookahead_threads=8 sliced_threads=0 nr=0 decimate=1 interlaced=0 bluray_compat=0 constrained_intra=0 bframes=3 b_pyramid=2 b_adapt=1 b_bias=0 direct=1 weightb=1 open_gop=0 weightp=1 keyint=250 keyint_min=25 scenecut=40 intra_refresh=0 rc_lookahead=10 rc=crf mbtree=1 crf=18.0 qcomp=0.60 qpmin=0 qpmax=69 qpstep=4 ip_ratio=1.40 aq=1:1.00
Output #0, mp4, to '/var/www/html/project/media/video/watermarks/can.mp4':
  Metadata:
    major_brand     : mp42
    minor_version   : 1
    compatible_brands: isommp41mp42
    encoder         : Lavf58.29.100
    Stream #0:0: Video: h264 (libx264), 1 reference frame (avc1 / 0x31637661), yuv420p(progressive), 1920x1080 [SAR 1:1 DAR 16:9], q=-1--1, 25 fps, 12800 tbn, 25 tbc (default)
    Metadata:
      encoder         : Lavc58.54.100 libx264
    Side data:
      cpb: bitrate max/min/avg: 0/0/0 buffer size: 0 vbv_delay: -1
    Stream #0:1: Audio: aac (LC) (mp4a / 0x6134706D), 48000 Hz, stereo, fltp, delay 1024, 128 kb/s (default)
    Metadata:
      encoder         : Lavc58.54.100 aac
[Parsed_concat_7 @ 0x562769f59940] EOF on in0:a0, 1 streams left in segment.
[Parsed_overlay_6 @ 0x562769f58800] [framesync @ 0x562769f58968] Sync level 0
[Parsed_concat_7 @ 0x562769f59940] EOF on in0:v0, 0 streams left in segment.
[Parsed_concat_7 @ 0x562769f59940] Segment finished at pts=52372000
[Parsed_concat_7 @ 0x562769f59940] EOF on in1:v0, 1 streams left in segment.
[Parsed_concat_7 @ 0x562769f59940] EOF on in1:a0, 0 streams left in segment.
[Parsed_concat_7 @ 0x562769f59940] Segment finished at pts=54390687
No more output streams to write to, finishing.
frame= 1359 fps= 35 q=-1.0 Lsize=   39025kB time=00:00:54.40 bitrate=5876.7kbits/s speed= 1.4x    
[AVIOContext @ 0x562768b5f440] Statistics: 0 seeks, 75 writeouts
video:38140kB audio:845kB subtitle:0kB other streams:0kB global headers:0kB muxing overhead: 0.104293%
Input file #0 (/var/www/html/project/media/video/original/can.mp4):
  Input stream #0:0 (audio): 2457 packets read (660827 bytes); 2455 frames decoded (2513856 samples); 
  Input stream #0:1 (video): 1309 packets read (77187777 bytes); 1309 frames decoded; 
  Total: 3766 packets (77848604 bytes) demuxed
Input file #1 (/var/www/html/project/static/images/templates/logo.png):
  Input stream #1:0 (video): 1 packets read (111578 bytes); 1 frames decoded; 
  Total: 1 packets (111578 bytes) demuxed
Input file #2 (/var/www/html/project/static/images/templates/Codino.mp4):
  Input stream #2:0 (audio): 89 packets read (26579 bytes); 87 frames decoded (89024 samples); 
  Input stream #2:1 (video): 50 packets read (203365 bytes); 50 frames decoded; 
  Total: 139 packets (229944 bytes) demuxed
Output file #0 (/var/www/html/project/media/video/watermarks/can.mp4):
  Output stream #0:0 (video): 1359 frames encoded; 1359 packets muxed (39054968 bytes); 
  Output stream #0:1 (audio): 2550 frames encoded (2610753 samples); 2551 packets muxed (865243 bytes); 
  Total: 3910 packets (39920211 bytes) muxed
[AVIOContext @ 0x562768c0ba40] Statistics: 2 seeks, 156 writeouts
[libx264 @ 0x562768b72dc0] frame I:8     Avg QP:13.51  size: 98900
[libx264 @ 0x562768b72dc0] frame P:497   Avg QP:17.32  size: 46392
[libx264 @ 0x562768b72dc0] frame B:854   Avg QP:18.41  size: 17806
[libx264 @ 0x562768b72dc0] consecutive B-frames: 11.8%  9.0% 13.0% 66.2%
[libx264 @ 0x562768b72dc0] mb I  I16..4: 29.8% 32.9% 37.3%
[libx264 @ 0x562768b72dc0] mb P  I16..4: 15.7% 29.2%  5.1%  P16..4: 19.6% 13.2%  6.1%  0.0%  0.0%    skip:11.1%
[libx264 @ 0x562768b72dc0] mb B  I16..4:  4.5%  5.2%  0.3%  B16..8: 28.9% 12.6%  0.9%  direct:10.5%  skip:37.2%  L0:46.3% L1:44.9% BI: 8.8%
[libx264 @ 0x562768b72dc0] 8x8 transform intra:56.1% inter:41.2%
[libx264 @ 0x562768b72dc0] coded y,uvDC,uvAC intra: 47.4% 45.3% 10.4% inter: 12.0% 18.2% 0.2%
[libx264 @ 0x562768b72dc0] i16 v,h,dc,p: 31% 50% 11%  8%
[libx264 @ 0x562768b72dc0] i8 v,h,dc,ddl,ddr,vr,hd,vl,hu: 18% 37% 16%  4%  5%  4%  7%  4%  6%
[libx264 @ 0x562768b72dc0] i4 v,h,dc,ddl,ddr,vr,hd,vl,hu: 22% 31% 12%  5%  8%  5%  8%  4%  6%
[libx264 @ 0x562768b72dc0] i8c dc,h,v,p: 53% 31% 11%  5%
[libx264 @ 0x562768b72dc0] Weighted P-Frames: Y:1.6% UV:0.2%
[libx264 @ 0x562768b72dc0] kb/s:5747.50
[aac @ 0x562768c0bf00] Qavg: 1058.967
[AVIOContext @ 0x562768b68380] Statistics: 121326178 bytes read, 2620 seeks
[AVIOContext @ 0x562768b65940] Statistics: 111578 bytes read, 0 seeks
[AVIOContext @ 0x562768bbe8c0] Statistics: 1530915 bytes read, 42 seeks
